# File created by Blade
# Date/Time:  Tue Apr 07 20:53:11 2015
# Frame Rate: 120.000 fps
#------------------------------------------------------
:FULLY-SPECIFIED
:DEGREES
892
root 36.245683 32.490285 3.325233 8.532726 -80.916987 -350.660590
Spine -14.757200 -12.812164 2.858158
Head 15.744013 -3.140804 2.905532
LeftShoulder -17.492939 26.769671 36.178054
LeftArm 94.954602 -67.493833 -77.090687
LeftForeArm 6.674328 0.000000 25.092424
LeftHand 14.174484 0.000000 26.525150
LeftHandThumb1 -26.253704 0.000000 33.147579
RightShoulder -12.029560 20.998836 -48.968057
RightArm 32.981791 16.272820 30.407749
RightForeArm -22.557342 -0.000000 10.675618
RightHand 11.616470 -0.000000 -16.194156
RightHandThumb1 -24.326973 -0.000000 -32.862282
LeftUpLeg -5.343259 -9.248098 -3.686601
LeftLeg 8.458885 -0.000000 -0.000000
LeftFoot 1.904129 10.444388 -8.757951
LeftToeBase -35.321294 -0.000000 0.000000
RightUpLeg -30.457219 -9.485824 7.840475
RightLeg -2.318602 -0.000000 0.000000
RightFoot 7.457030 -16.899148 11.212837
RightToeBase 1.865018 -0.000000 -0.000000
893
root 36.370079 32.542412 3.342013 9.715771 -80.973603 -352.158827
Spine -14.510770 -12.734558 3.084952
Head 15.839764 -3.162916 2.703151
LeftShoulder -17.586671 26.723513 36.133285
LeftArm 95.070412 -67.475109 -77.094981
LeftForeArm 6.980812 -0.000000 25.319660
LeftHand 14.195361 -0.000000 26.961911
LeftHandThumb1 -26.253704 0.000000 33.147579
RightShoulder -12.049687 21.049498 -49.080408
RightArm 32.997489 16.322199 30.131344
RightForeArm -22.718362 0.000000 10.422525
RightHand 11.992622 0.000000 -16.741281
RightHandThumb1 -24.326973 -0.000000 -32.862282
LeftUpLeg -5.162163 -9.059795 -3.570549
LeftLeg 8.186115 -0.000000 -0.000000
LeftFoot 2.315741 10.550484 -8.394751
LeftToeBase -35.213013 -0.000000 0.000000
RightUpLeg -30.173535 -9.225718 7.759361
RightLeg -1.679036 -0.000000 0.000000
RightFoot 6.978630 -17.129087 11.322121
RightToeBase 1.704638 -0.000000 -0.000000
894
root 36.481974 32.600592 3.356762 11.018726 -81.037322 -353.814056
Spine -14.250506 -12.626073 3.326038
Head 16.035622 -3.244005 2.461556
LeftShoulder -17.692209 26.723267 36.049965
LeftArm 95.387266 -67.440460 -77.286560
LeftForeArm 7.393801 -0.000000 25.514243
LeftHand 14.270087 0.000000 27.102418
LeftHandThumb1 -26.253704 0.000000 33.147579
RightShoulder -12.073619 21.124773 -49.194659
RightArm 33.012060 16.479663 29.972541
RightForeArm -22.948769 -0.000000 10.277672
RightHand 12.043040 -0.000000 -16.656502
RightHandThumb1 -24.326973 -0.000000 -32.862282
LeftUpLeg -4.965651 -8.895544 -3.418792
LeftLeg 7.979006 -0.000000 -0.000000
LeftFoot 2.792404 10.628299 -8.149787
LeftToeBase -35.240693 -0.000000 0.000000
RightUpLeg -29.764886 -8.847107 7.642606
RightLeg -1.003923 -0.000000 0.000000
RightFoot 6.381184 -17.336750 11.128344
RightToeBase 1.805699 -0.000000 -0.000000
895
root 36.585120 32.666053 3.369870 12.403998 -81.108143 -355.543600
Spine -14.036472 -12.507247 3.568120
Head 16.297350 -3.286462 2.262533
LeftShoulder -17.795096 26.722177 36.003287
LeftArm 95.534936 -67.348369 -77.325149
LeftForeArm 7.650566 -0.000000 25.730587
LeftHand 14.219482 -0.000000 27.232984
LeftHandThumb1 -26.253704 0.000000 33.147579
RightShoulder -12.111970 21.215654 -49.299878
RightArm 33.048432 16.633878 29.877352
RightForeArm -23.066348 -0.000000 10.208491
RightHand 11.328554 -0.000000 -16.761374
RightHandThumb1 -24.326973 -0.000000 -32.862282
LeftUpLeg -4.769369 -8.792564 -3.248274
LeftLeg 7.759409 -0.000000 -0.000000
LeftFoot 3.350792 10.779093 -8.014613
LeftToeBase -35.314359 -0.000000 0.000000
RightUpLeg -29.284419 -8.393275 7.496217
RightLeg -0.318947 -0.000000 0.000000
RightFoot 5.682203 -17.594403 11.044000
RightToeBase 1.551151 -0.000000 -0.000000
896
root 36.675322 32.735970 3.378489 13.963056 -81.160924 -357.442361
Spine -13.868903 -12.374457 3.819827
Head 16.631113 -3.373880 2.088403
LeftShoulder -17.877263 26.754826 35.994197
LeftArm 95.923733 -67.212200 -77.673083
LeftForeArm 8.212089 0.000000 25.944198
LeftHand 14.288238 -0.000000 27.145714
LeftHandThumb1 -26.253704 0.000000 33.147579
RightShoulder -12.164154 21.255962 -49.391397
RightArm 33.113173 16.898730 29.929161
RightForeArm -23.282185 -0.000000 10.181829
RightHand 11.312931 -0.000000 -16.779981
RightHandThumb1 -24.326973 -0.000000 -32.862282
LeftUpLeg -4.564969 -8.741254 -3.029854
LeftLeg 7.536903 -0.000000 -0.000000
LeftFoot 3.899441 10.993417 -8.004700
LeftToeBase -35.530424 -0.000000 0.000000
RightUpLeg -28.685788 -7.842365 7.357781
RightLeg 0.242067 -0.000000 -0.000000
RightFoot 4.939190 -18.111261 10.872548
RightToeBase 1.390516 -0.000000 -0.000000
897
root 36.757561 32.809870 3.383984 15.669374 -81.210343 -359.468552
Spine -13.741608 -12.251483 4.093176
Head 17.000157 -3.397802 1.919510
LeftShoulder -17.962602 26.771444 35.984266
LeftArm 95.641821 -67.155484 -77.308813
LeftForeArm 8.567370 0.000000 26.157951
LeftHand 14.173618 -0.000000 27.115060
LeftHandThumb1 -26.253704 0.000000 33.147579
RightShoulder -12.219568 21.294580 -49.468770
RightArm 33.214397 17.198320 30.004103
RightForeArm -23.468037 -0.000000 10.183038
RightHand 11.490040 -0.000000 -16.869998
RightHandThumb1 -24.326973 -0.000000 -32.862282
LeftUpLeg -4.363509 -8.698956 -2.787556
LeftLeg 7.300764 -0.000000 -0.000000
LeftFoot 4.502861 11.177126 -7.951945
LeftToeBase -35.396974 -0.000000 0.000000
RightUpLeg -28.019657 -7.258515 7.254180
RightLeg 0.706764 -0.000000 -0.000000
RightFoot 4.238347 -18.770704 10.448701
RightToeBase 1.490781 -0.000000 -0.000000
898
root 36.833119 32.886680 3.382391 17.605995 -81.200184 -361.654902
Spine -13.726122 -12.157564 4.404826
Head 17.422588 -3.412549 1.778304
LeftShoulder -18.069060 26.835083 35.971836
LeftArm 95.488526 -67.062917 -77.020262
LeftForeArm 8.967545 -0.000000 26.255390
LeftHand 14.201826 -0.000000 27.010626
LeftHandThumb1 -26.253704 0.000000 33.147579
RightShoulder -12.293408 21.383845 -49.559655
RightArm 33.302051 17.453021 30.125599
RightForeArm -23.727290 -0.000000 10.209701
RightHand 10.929196 -0.000000 -16.575983
RightHandThumb1 -24.326973 -0.000000 -32.862282
LeftUpLeg -4.251443 -8.681877 -2.448707
LeftLeg 7.151668 -0.000000 -0.000000
LeftFoot 4.991097 11.100326 -8.160527
LeftToeBase -34.866178 -0.000000 0.000000
RightUpLeg -27.358111 -6.644747 7.207393
RightLeg 1.118950 -0.000000 -0.000000
RightFoot 3.492545 -19.560417 10.039063
RightToeBase 1.375213 -0.000000 -0.000000
899
root 36.901877 32.965245 3.383102 19.486085 -81.158049 -363.716816
Spine -13.817040 -12.046760 4.730246
Head 17.891441 -3.449831 1.606000
LeftShoulder -18.132549 26.932174 35.946450
LeftArm 95.061494 -67.048903 -76.385432
LeftForeArm 9.225136 -0.000000 26.265040
LeftHand 14.118653 -0.000000 27.125673
LeftHandThumb1 -26.253704 0.000000 33.147579
RightShoulder -12.373528 21.445222 -49.656659
RightArm 33.388205 17.705472 30.194199
RightForeArm -23.890631 -0.000000 10.273571
RightHand 10.975282 -0.000000 -15.318855
RightHandThumb1 -24.326973 -0.000000 -32.862282
LeftUpLeg -4.157561 -8.707696 -2.123910
LeftLeg 6.885468 -0.000000 -0.000000
LeftFoot 5.650518 11.203472 -8.281357
LeftToeBase -34.821078 -0.000000 0.000000
RightUpLeg -26.696236 -6.044957 7.170004
RightLeg 1.485427 -0.000000 -0.000000
RightFoot 2.723671 -20.281929 9.774818
RightToeBase 1.287398 -0.000000 -0.000000
900
root 36.966706 33.042120 3.380419 21.535179 -81.055550 -365.871713
Spine -14.007708 -11.975624 5.114688
Head 18.354798 -3.485569 1.428392
LeftShoulder -18.229175 27.011724 35.888277
LeftArm 94.380942 -67.089202 -75.407263
LeftForeArm 9.636074 0.000000 26.125190
LeftHand 14.063775 -0.000000 26.964598
LeftHandThumb1 -26.253704 0.000000 33.147579
RightShoulder -12.497090 21.531657 -49.779166
RightArm 33.507035 17.807781 30.212704
RightForeArm -23.982610 -0.000000 10.217431
RightHand 10.545649 0.000000 -15.541036
RightHandThumb1 -24.326973 -0.000000 -32.862282
LeftUpLeg -4.149460 -8.815579 -1.766884
LeftLeg 6.653098 -0.000000 -0.000000
LeftFoot 6.264009 11.378480 -8.312962
LeftToeBase -34.541842 -0.000000 0.000000
RightUpLeg -26.069762 -5.461936 7.199987
RightLeg 1.813720 -0.000000 -0.000000
RightFoot 2.006793 -20.966374 9.595977
RightToeBase 0.512608 -0.000000 -0.000000
901
root 37.027796 33.117553 3.378939 23.616652 -80.948849 -368.008224
Spine -14.267679 -11.889633 5.519727
Head 18.817823 -3.482623 1.249055
LeftShoulder -18.325181 27.087075 35.830136
LeftArm 93.553051 -67.148480 -74.235478
LeftForeArm 9.928250 0.000000 25.887559
LeftHand 13.901018 -0.000000 26.882519
LeftHandThumb1 -26.253704 0.000000 33.147579
RightShoulder -12.585538 21.611807 -49.889988
RightArm 33.594637 17.931511 30.159077
RightForeArm -24.112045 -0.000000 10.161764
RightHand 10.510270 -0.000000 -15.060475
RightHandThumb1 -24.326973 -0.000000 -32.862282
LeftUpLeg -4.176903 -8.840368 -1.407887
LeftLeg 6.400431 -0.000000 -0.000000
LeftFoot 6.862933 11.571531 -8.398537
LeftToeBase -34.469927 -0.000000 0.000000
RightUpLeg -25.467968 -4.894628 7.261315
RightLeg 2.168614 -0.000000 -0.000000
RightFoot 1.347477 -21.380712 9.300872
RightToeBase 0.722718 -0.000000 -0.000000
902
root 37.085858 33.189817 3.374564 25.655715 -80.788463 -370.052229
Spine -14.575082 -11.818946 5.937502
Head 19.283332 -3.387797 1.137559
LeftShoulder -18.459165 27.164024 35.743866
LeftArm 93.188258 -67.248948 -73.538560
LeftForeArm 9.996916 -0.000000 25.601752
LeftHand 14.290922 -0.000000 25.997002
LeftHandThumb1 -26.253704 0.000000 33.147579
RightShoulder -12.721093 21.599267 -50.011491
RightArm 33.709657 18.057549 30.084346
RightForeArm -24.134735 0.000000 10.101198
RightHand 10.396289 -0.000000 -15.184664
RightHandThumb1 -24.326973 -0.000000 -32.862282
LeftUpLeg -4.267213 -8.864215 -1.033534
LeftLeg 6.181091 -0.000000 -0.000000
LeftFoot 7.443008 11.736899 -8.404037
LeftToeBase -34.418989 -0.000000 0.000000
RightUpLeg -24.899562 -4.380577 7.369945
RightLeg 2.565100 -0.000000 -0.000000
RightFoot 0.705251 -21.548597 9.102574
RightToeBase 0.235979 -0.000000 -0.000000
